<?xml version="1.0" encoding="utf-8"?>
<!-- Generator: Adobe Illustrator 24.0.1, SVG Export Plug-In . SVG Version: 6.00 Build 0)  -->
<svg version="1.1" id="Layer_1" xmlns="http://www.w3.org/2000/svg" xmlns:xlink="http://www.w3.org/1999/xlink" x="0px" y="0px"
	 viewBox="0 0 96 96" style="enable-background:new 0 0 96 96;" xml:space="preserve">
<style type="text/css">
	.st0{fill:#8BC34A;}
	.st1{fill:#795548;}
	.st2{fill:#689F38;}
	.st3{fill:#03A9F4;}
	.st4{fill:#81D4FA;}
</style>
<g>
	<path class="st0" d="M31.3,16.2c0.7-2.1,0-5.7,1.2-7.7c0.8-1.2,2.5-1.1,3.1,0.1c1,1.9-0.5,5.2-0.3,7.3c-1.2-0.2-2.3,0.3-3.5,0.2
		L31.3,16.2z"/>
	<path class="st0" d="M70.9,14.3c2-1.5,3.9-3.2,6.1-4.4c1-0.6,2.3-0.3,2.8,0.7c0.4,0.6,0.4,1.4-0.2,2c-1.8,1.8-3.9,3.1-5.9,4.6
		C72.8,16.2,71.8,15.2,70.9,14.3z"/>
	<path class="st0" d="M32.5,72.1c-9-10.2-13.8-23.5-15.2-37c2.7,11.8,7.8,23.4,16.4,32.1c1.8,1.9,4,3.3,5.6,5.4
		c-1.8-1.2-4.3-1.7-5.9,0L32.5,72.1z"/>
	<path class="st0" d="M52.5,70.2c6.8-14.6,19.3-26.8,34.5-32.1c-12.3,6.3-22.9,17-28,30c-0.4,1.1-0.7,2.3-1,3.5
		c-1.8,3.2-5.9,3.5-9.2,3.8c-0.9-11.9-0.2-24.2,4-35.5c1.2,0.6,2.4,1.1,3.6,1.5C53.2,50.7,52.3,60.5,52.5,70.2z"/>
	<path class="st0" d="M32.8,48.2c1.3-0.1,2.7-0.3,4-0.4c1.9,9.6,5.1,19,9.7,27.6c-2.3-0.3-4.9-0.3-6.5-2.1l0.8-0.4
		C36.9,65,34.4,56.7,32.8,48.2z"/>
</g>
<g>
	<path class="st1" d="M63.7,15.7c1.8-2,4.8-2.3,7.2-1.3c1,0.9,1.9,1.9,2.8,2.9c0.8,2.4,0.4,5.2-1.5,7c-3.8,4-7.1,8.5-9.6,13.4
		c-1.1,2.4-3.5,3.9-6.1,3.9c-1.2-0.5-2.4-1-3.6-1.5C51,38,50.3,35,51.6,32.6C54.7,26.4,58.8,20.6,63.7,15.7z"/>
	<path class="st1" d="M27.1,20.9c0.1-1.3,0.7-2.5,1.5-3.4c1.3-1.4,3.3-2,5.2-1.8c0.4,0.1,0.8,0.1,1.1,0.2c0.2,0,0.4,0.1,0.6,0.2
		c2.2,1.1,3.6,3.4,3.4,5.9c-0.2,6.7,0.1,13.3,0.7,20c0.3,2.2-0.9,4.2-2.5,5.5c-0.3,0.2-0.6,0.3-0.9,0.3c-1.1,0.1-2.1,0.2-3.2,0.3
		c-0.2,0-0.4,0-0.6,0c-2.6-0.6-4.6-3-4.7-5.6C26.9,35.3,26.6,28.1,27.1,20.9z"/>
</g>
<g>
	<path class="st2" d="M59,68.1c5.3-7,12.5-13.4,21.1-16c-7.4,4-13.2,10.6-17.2,17.9c3.5-3,7.5-5.9,12.3-6.1c-4.7,2-8,5.9-10.7,10
		c-1.1-0.8-2.1-1.6-3.1-2.5c-1.1,0-2.3,0-3.4,0.1C58.3,70.4,58.6,69.3,59,68.1z"/>
	<path class="st2" d="M13.1,56.4l0.5-0.2c4.6,7.1,11.5,12.3,19,15.8l0.9,0.6c-1.4,1-2.9,1.8-4.6,2.4C22.2,70.2,16.7,63.8,13.1,56.4z
		"/>
</g>
<g>
	<path class="st3" d="M58,71.6c1.1,0,2.3-0.1,3.4-0.1c1,0.8,2,1.7,3.1,2.5c4.8,1.8,10.7,2,15.4-0.3c3.1-1.8,3.7-3.5,6.2-3.1
		c0,0.5-0.1,2.3-0.1,2.9c-6.1,7.7-18.1,7.2-25.9,2.6c-7.2,4.5-16.8,4.4-24,0c-7.8,4.7-19.9,5.1-25.9-2.6C10,73,9.9,72,9.9,71.5
		c0.9,0,2.6,0,3.5,0c3.8,4.6,10.2,3.9,15.5,3.5c1.6-0.5,3.1-1.4,4.6-2.4c1.7-1.8,4.1-1.3,5.9,0l0.7,0.6c1.6,1.9,4.3,1.9,6.5,2.1
		c0.6,0,1.8,0,2.3,0C52.1,75.1,56.2,74.8,58,71.6z"/>
	<path class="st3" d="M9.9,81.6c0.8,0,2.3,0,3.1-0.1c2.1,1.4,4.1,2.9,6.5,3.6c2.9,1.3,6.1,1.1,9,0c2.7-0.8,4.8-3.2,7.5-4.1
		c3,1.1,5.6,3.8,9,4.3c1.8,0.4,3.9,0.5,6.1,0c3.3-0.5,5.9-3.1,8.9-4.3c2.7,0.8,4.8,3.3,7.5,4.1c2.9,1.2,6,1.2,8.9,0
		c2.4-0.7,4.5-2.2,6.6-3.6c0.8,0,2.3,0,3,0c-0.4,3.6-3.7,5.8-6.9,6.8c-6.3,1.9-13.7,1.4-19.2-2.5c-7,4.8-17,4.7-24,0
		c-5.3,3.7-12.3,4.3-18.5,2.7C14.1,87.7,10.4,85.5,9.9,81.6z"/>
</g>
<g>
	<path class="st4" d="M19.5,85.2c3-0.1,6-0.1,9,0C25.6,86.3,22.4,86.4,19.5,85.2z"/>
	<path class="st4" d="M67.5,85.2c3-0.1,5.9-0.1,8.9,0C73.6,86.3,70.4,86.3,67.5,85.2z"/>
</g>
<path class="st4" d="M86,73.6c-6.1,7.7-18.1,7.2-26,2.6c-7.2,4.5-16.8,4.4-24,0c-7.8,4.7-19.8,5.2-25.9-2.6c-0.1,2.7,0,5.4-0.1,8.1
	c0.8,0,2.3,0,3.1,0c2,1.4,4.1,2.8,6.5,3.6c3-0.1,6-0.1,9,0c2.7-0.8,4.8-2.9,7.5-3.7c0.5-0.2,2,0.9,2.5,1.2c0.8,0.5,1.7,1,2.5,1.4
	c2.6,1.4,5.6,2.4,8.6,2c2.1-0.3,4.1-1.2,5.9-2.2c0.8-0.5,1.6-1,2.5-1.4c0.5-0.3,1.4-1.1,2-0.9c2.7,0.8,4.8,3,7.6,3.7
	c3-0.1,5.9-0.1,8.9,0c2.4-0.7,4.5-2.2,6.6-3.6c0.8,0,2.3,0,3,0.1C86,78.9,86,76.2,86,73.6z"/>
</svg>
